# File created by Blade
# Date/Time:  Thu Sep 25 15:41:58 2014
# Frame Rate: 120.000 fps
#------------------------------------------------------
:FULLY-SPECIFIED
:DEGREES
673
root -10.850336 35.495830 -1.289767 206.061613 -79.527068 -52.370823
Spine 0.426143 13.263405 -2.340299
Head -86.550405 4.876024 2.003834
LeftShoulder -14.308095 33.130694 18.272512
LeftArm 180.124227 -68.379282 -122.033638
LeftForeArm -14.264569 -0.000000 8.646344
LeftHand -40.126059 -0.000000 77.644093
LeftHandThumb1 -26.253704 0.000000 33.147579
RightShoulder -13.244995 10.023447 -33.476469
RightArm 101.181175 55.671854 63.446963
RightForeArm -23.057304 -0.000000 35.618991
RightHand -10.971441 0.000000 -62.635301
RightHandThumb1 -24.326973 -0.000000 -32.862282
LeftUpLeg -106.492030 11.486814 4.298957
LeftLeg 5.180161 -0.000000 -0.000000
LeftFoot -12.602110 4.756696 -34.829750
LeftToeBase -0.125665 -0.000000 0.000000
RightUpLeg -5.917107 -14.280806 -3.955261
RightLeg 6.138688 -0.000000 -0.000000
RightFoot 26.827383 -0.598020 -0.415544
RightToeBase 6.496363 -0.000000 -0.000000
674
root -10.462538 35.363851 -1.324697 202.826440 -78.471648 -50.336296
Spine 0.908110 13.458026 -2.413563
Head -86.278009 5.321336 2.225893
LeftShoulder -14.371089 32.906804 18.407720
LeftArm 179.480389 -68.434081 -121.783587
LeftForeArm -13.266677 0.000000 9.054339
LeftHand -39.654926 0.000000 77.443329
LeftHandThumb1 -26.253704 0.000000 33.147579
RightShoulder -13.008116 9.936340 -33.448504
RightArm 100.626337 55.501554 62.697762
RightForeArm -21.373015 -0.000000 35.083498
RightHand -10.844244 -0.000000 -63.085331
RightHandThumb1 -24.326973 -0.000000 -32.862282
LeftUpLeg -108.114901 11.940200 4.193174
LeftLeg 4.895817 -0.000000 -0.000000
LeftFoot -12.284517 4.387023 -34.692939
LeftToeBase -0.989776 -0.000000 0.000000
RightUpLeg -6.231696 -13.927716 -2.903310
RightLeg 6.524702 -0.000000 -0.000000
RightFoot 26.943250 -0.636683 -0.415026
RightToeBase 6.365466 -0.000000 -0.000000
675
root -10.062687 35.212793 -1.367626 199.935373 -77.343069 -48.759736
Spine 1.429653 13.668657 -2.529095
Head -86.051175 5.836944 2.558653
LeftShoulder -14.437776 32.814061 18.554830
LeftArm 178.999175 -68.310319 -121.687798
LeftForeArm -12.114865 -0.000000 9.550803
LeftHand -39.557539 -0.000000 77.273182
LeftHandThumb1 -26.253704 0.000000 33.147579
RightShoulder -12.757470 10.127236 -33.463949
RightArm 99.774141 55.073947 61.923105
RightForeArm -20.381276 -0.000000 34.607992
RightHand -10.648031 -0.000000 -63.169536
RightHandThumb1 -24.326973 -0.000000 -32.862282
LeftUpLeg -109.561867 12.425633 4.111608
LeftLeg 4.699858 -0.000000 -0.000000
LeftFoot -12.155211 4.181379 -34.866031
LeftToeBase -0.659900 -0.000000 0.000000
RightUpLeg -6.455537 -13.575621 -1.840898
RightLeg 6.807398 -0.000000 -0.000000
RightFoot 27.142743 -0.418162 -0.702265
RightToeBase 6.192541 -0.000000 -0.000000
676
root -9.654791 35.044244 -1.405459 197.879088 -76.145792 -48.079948
Spine 1.913288 13.870393 -2.820015
Head -85.773740 6.370966 2.907386
LeftShoulder -14.552809 33.003587 18.635503
LeftArm 179.044791 -67.965271 -122.064381
LeftForeArm -10.970467 0.000000 10.198685
LeftHand -39.708919 -0.000000 76.828769
LeftHandThumb1 -26.253704 0.000000 33.147579
RightShoulder -12.416967 10.188586 -33.326757
RightArm 99.133007 54.702485 61.223568
RightForeArm -19.487682 -0.000000 34.076154
RightHand -10.492034 0.000000 -63.175233
RightHandThumb1 -24.326973 -0.000000 -32.862282
LeftUpLeg -110.854495 12.917068 4.021872
LeftLeg 4.593557 -0.000000 -0.000000
LeftFoot -12.330324 4.644136 -34.857633
LeftToeBase 0.259586 -0.000000 -0.000000
RightUpLeg -6.697778 -13.348368 -0.891030
RightLeg 7.023068 -0.000000 -0.000000
RightFoot 27.300352 0.081498 -0.996222
RightToeBase 6.267330 -0.000000 -0.000000
677
root -9.242934 34.861942 -1.446416 196.139884 -74.876244 -47.735060
Spine 2.354911 14.027271 -3.170682
Head -85.597307 6.963333 3.353111
LeftShoulder -14.678819 32.869772 18.764296
LeftArm 178.272609 -68.179628 -121.602358
LeftForeArm -10.102950 -0.000000 10.654477
LeftHand -39.279259 -0.000000 76.265159
LeftHandThumb1 -26.253704 0.000000 33.147579
RightShoulder -11.982328 10.494166 -33.191825
RightArm 98.204666 54.236360 60.207990
RightForeArm -18.562659 -0.000000 33.471804
RightHand -10.259420 -0.000000 -63.334081
RightHandThumb1 -24.326973 -0.000000 -32.862282
LeftUpLeg -112.066219 13.404117 3.805749
LeftLeg 4.508503 -0.000000 -0.000000
LeftFoot -12.656499 5.138126 -34.706322
LeftToeBase 0.576705 -0.000000 -0.000000
RightUpLeg -6.991911 -13.082919 0.065728
RightLeg 7.138136 -0.000000 -0.000000
RightFoot 27.506759 0.710390 -1.197023
RightToeBase 6.358447 -0.000000 -0.000000
678
root -8.826967 34.665168 -1.482428 194.928242 -73.615063 -47.946918
Spine 2.785602 14.100634 -3.604134
Head -85.513157 7.523356 3.770391
LeftShoulder -14.956942 32.994466 18.699118
LeftArm 178.164683 -68.110723 -121.685781
LeftForeArm -8.974574 -0.000000 11.068724
LeftHand -39.506961 -0.000000 75.604457
LeftHandThumb1 -26.253704 0.000000 33.147579
RightShoulder -11.611136 10.628964 -33.090921
RightArm 97.750586 53.673114 59.741560
RightForeArm -17.388598 -0.000000 33.027314
RightHand -10.086977 -0.000000 -63.147903
RightHandThumb1 -24.326973 -0.000000 -32.862282
LeftUpLeg -113.142849 13.833464 3.597202
LeftLeg 4.506845 -0.000000 -0.000000
LeftFoot -13.469886 6.217454 -34.923942
LeftToeBase 0.409080 -0.000000 -0.000000
RightUpLeg -7.356984 -12.946919 0.966796
RightLeg 7.196138 -0.000000 -0.000000
RightFoot 27.752461 1.483107 -1.072115
RightToeBase 6.059196 -0.000000 -0.000000
679
root -8.409879 34.458121 -1.519156 194.012707 -72.284328 -48.471952
Spine 3.157075 14.218863 -4.149576
Head -85.456602 8.095394 4.112455
LeftShoulder -15.124650 32.845064 18.738393
LeftArm 177.581497 -68.584795 -121.236360
LeftForeArm -8.132072 0.000000 11.273422
LeftHand -39.714917 -0.000000 74.938563
LeftHandThumb1 -26.253704 0.000000 33.147579
RightShoulder -11.173548 10.952721 -33.018627
RightArm 97.029409 53.004502 59.052004
RightForeArm -16.550840 -0.000000 32.514641
RightHand -10.168580 -0.000000 -63.057906
RightHandThumb1 -24.326973 -0.000000 -32.862282
LeftUpLeg -114.176662 14.231610 3.117348
LeftLeg 4.609992 -0.000000 -0.000000
LeftFoot -14.151362 7.526502 -35.161372
LeftToeBase 0.511290 -0.000000 -0.000000
RightUpLeg -7.787807 -12.809520 1.852333
RightLeg 7.131120 -0.000000 -0.000000
RightFoot 28.091417 2.129388 -0.776931
RightToeBase 6.282890 -0.000000 -0.000000
680
root -7.983729 34.242108 -1.547902 193.419283 -70.978246 -49.436113
Spine 3.564494 14.407822 -4.787027
Head -85.290051 8.628233 4.410872
LeftShoulder -15.267738 33.004463 18.867910
LeftArm 177.304702 -68.738513 -121.143250
LeftForeArm -7.242229 -0.000000 11.438625
LeftHand -39.795645 -0.000000 74.222293
LeftHandThumb1 -26.253704 0.000000 33.147579
RightShoulder -10.712294 11.517355 -33.095373
RightArm 95.884382 52.192398 58.209274
RightForeArm -15.745516 -0.000000 32.042286
RightHand -10.149800 -0.000000 -62.909051
RightHandThumb1 -24.326973 -0.000000 -32.862282
LeftUpLeg -115.043915 14.591677 2.682932
LeftLeg 4.907284 -0.000000 -0.000000
LeftFoot -14.725413 8.998325 -35.208759
LeftToeBase -0.285498 -0.000000 0.000000
RightUpLeg -8.239801 -12.770941 2.661348
RightLeg 7.102601 -0.000000 -0.000000
RightFoot 28.273226 2.860406 -0.302554
RightToeBase 6.011049 -0.000000 -0.000000
